<?xml version="1.0" standalone="no"?>
<!DOCTYPE svg PUBLIC "-//W3C//DTD SVG 20010904//EN"
 "http://www.w3.org/TR/2001/REC-SVG-20010904/DTD/svg10.dtd">
<svg version="1.0" xmlns="http://www.w3.org/2000/svg"
 width="640.000000pt" height="640.000000pt" viewBox="0 0 640.000000 640.000000"
 preserveAspectRatio="xMidYMid meet">
<metadata>
Created by potrace 1.16, written by Peter Selinger 2001-2019
</metadata>
<g transform="translate(0.000000,640.000000) scale(0.100000,-0.100000)"
fill="#000000" stroke="none">
<path d="M3669 6081 c26 -7 43 -34 20 -30 -8 1 -34 0 -59 -1 -42 -2 -40 -3 40
-21 119 -27 123 -30 60 -45 -30 -8 -71 -19 -91 -25 -32 -10 -39 -9 -57 9 -28
28 -229 43 -247 18 -7 -9 -17 -16 -22 -16 -6 0 -24 -7 -39 -15 -16 -8 -47 -15
-68 -15 -26 0 -47 -7 -62 -21 -12 -11 -32 -21 -46 -23 -13 -1 -35 -10 -48 -19
-14 -9 -37 -17 -52 -17 -16 0 -28 -4 -28 -8 0 -9 -53 -42 -67 -42 -4 0 1 7 11
15 11 8 15 15 10 15 -6 0 -27 -15 -47 -34 -20 -18 -50 -36 -67 -39 -17 -4 -30
-13 -30 -21 0 -10 -6 -13 -16 -9 -13 5 -15 2 -9 -18 7 -21 6 -22 -9 -10 -14
12 -16 11 -16 -3 0 -9 5 -16 11 -16 5 0 7 -5 3 -11 -5 -8 -9 -8 -14 1 -4 7
-13 9 -19 5 -9 -5 -7 -11 6 -20 17 -13 15 -17 -28 -57 -33 -31 -48 -54 -53
-82 -8 -41 -32 -86 -47 -86 -5 0 -9 20 -9 45 0 25 -1 45 -2 45 -2 0 -21 -7
-43 -15 -22 -8 -66 -14 -99 -15 l-59 0 5 -68 c7 -89 28 -130 70 -134 29 -3 31
-4 15 -19 -9 -9 -13 -20 -9 -24 4 -5 -1 -5 -11 -2 -10 4 -16 3 -12 -2 3 -5 2
-17 -1 -26 -6 -14 -8 -14 -26 1 -10 10 -17 23 -15 28 3 7 -10 11 -29 12 -19 0
-47 10 -63 21 -18 14 -33 18 -41 13 -8 -5 -18 -6 -22 -4 -4 3 -5 -3 -1 -12 4
-11 8 -13 11 -6 2 7 8 12 14 12 7 0 9 -22 5 -62 -4 -46 -1 -67 10 -85 8 -12
11 -23 7 -23 -5 0 -3 -4 4 -8 7 -5 15 -33 17 -63 l5 -54 -14 50 c-17 63 -34
105 -42 105 -3 0 -4 -7 -1 -15 4 -8 1 -17 -6 -21 -7 -4 -9 -4 -5 1 4 4 3 17
-3 28 -8 14 -8 18 0 13 15 -10 14 17 -1 33 -11 11 -10 12 2 6 8 -5 12 -4 7 0
-4 5 -18 9 -32 10 -22 1 -23 -1 -9 -17 13 -14 14 -23 4 -52 -6 -20 -16 -38
-21 -41 -12 -8 -12 -3 6 38 l14 35 -39 36 c-36 32 -119 82 -124 74 -1 -2 -15
-25 -31 -53 -15 -27 -39 -63 -54 -78 -21 -23 -23 -29 -11 -36 94 -54 100 -62
76 -94 -12 -16 -17 -15 -72 18 -64 39 -78 41 -120 22 -16 -8 -39 -18 -51 -23
-22 -9 -21 -10 23 -56 49 -52 69 -57 147 -39 38 9 39 9 32 -17 -8 -36 -31 -52
-73 -52 -28 0 -33 -3 -27 -17 37 -98 30 -195 -22 -303 -39 -79 -39 -80 -16
-80 23 0 24 -3 21 -60 -2 -33 -5 -60 -8 -60 -3 0 -27 7 -54 15 -52 16 -104 19
-155 9 -38 -8 -39 -17 -6 -32 14 -6 45 -30 69 -52 l43 -40 36 15 c54 22 67 20
67 -14 0 -25 -6 -31 -36 -41 -27 -9 -34 -16 -28 -29 18 -44 34 -108 34 -138 0
-30 2 -33 25 -27 27 7 29 2 39 -91 4 -34 3 -45 -4 -35 -5 8 -10 25 -10 38 0
12 -3 22 -7 22 -11 -1 -52 -24 -52 -30 0 -12 -16 -47 -33 -72 -19 -27 -23 -43
-10 -35 4 3 38 7 76 8 l69 4 13 -35 c18 -52 18 -63 -4 -51 -14 7 -35 4 -78
-11 -32 -12 -60 -22 -62 -23 -1 -1 19 -23 45 -50 l48 -47 57 5 c56 5 57 5 68
-27 19 -52 60 -126 127 -228 60 -92 63 -100 63 -157 0 -33 5 -63 10 -66 6 -3
10 -3 10 2 0 4 9 19 19 33 l19 24 21 -24 c21 -26 27 -50 13 -50 -5 0 -15 -18
-22 -40 -13 -39 -12 -41 16 -71 16 -17 47 -40 69 -50 26 -13 33 -14 21 -4 -11
8 -23 15 -27 15 -4 0 -6 7 -5 16 0 9 -5 19 -13 22 -8 3 -11 0 -7 -7 13 -20 0
-12 -30 20 -23 25 -24 29 -6 18 12 -8 22 -17 22 -21 0 -4 6 -5 14 -2 25 9 24
40 0 63 -13 13 -24 27 -24 32 0 16 19 10 29 -9 6 -11 43 -46 83 -78 40 -32 79
-67 86 -76 7 -9 35 -29 62 -44 28 -15 50 -33 50 -39 0 -7 8 -15 18 -17 9 -3
22 -6 27 -8 12 -3 65 -39 82 -56 7 -7 18 -14 25 -17 7 -2 9 -8 5 -13 -4 -5
-13 -2 -18 6 -9 12 -10 12 -5 -3 3 -10 6 -21 6 -24 0 -4 9 2 20 12 16 15 24
16 45 7 14 -6 27 -7 30 -2 3 5 -4 11 -14 15 -19 6 -19 7 5 53 27 49 26 56 -3
138 l-19 52 -49 -49 c-48 -47 -77 -61 -39 -18 14 16 15 23 7 26 -10 4 -10 10
-1 26 6 12 15 25 21 28 5 4 -3 6 -17 7 -14 0 -26 -5 -26 -10 0 -5 5 -6 10 -3
6 3 10 2 10 -4 0 -16 -18 -22 -24 -9 -3 7 -4 0 -2 -15 2 -15 1 -26 -1 -23 -2
2 -16 -7 -30 -20 -14 -13 -31 -24 -37 -24 -6 0 1 8 17 18 15 9 27 23 27 30 0
7 9 30 20 52 11 22 20 42 20 45 0 3 -28 5 -62 6 -54 1 -59 2 -33 10 17 5 39 7
50 4 11 -3 14 -2 7 1 -10 5 -10 9 -1 20 6 8 8 14 3 14 -5 0 -2 5 6 11 13 9 13
10 -1 6 -9 -3 -22 0 -28 6 -8 8 -11 8 -11 -1 0 -7 5 -12 10 -12 6 0 10 -5 10
-11 0 -6 -5 -7 -12 -2 -14 8 -19 10 -45 12 -22 2 43 40 70 41 24 0 22 7 -18
41 -34 30 -48 58 -22 43 7 -4 9 -3 4 2 -5 5 -12 9 -15 10 -25 3 -62 18 -62 24
0 5 12 7 26 5 18 -2 24 2 20 11 -3 8 1 14 10 14 11 0 14 -6 10 -16 -4 -9 -2
-13 5 -8 6 4 14 3 18 -2 3 -5 33 -32 66 -59 33 -28 68 -58 78 -67 22 -19 51
-13 43 9 -5 11 -2 11 16 2 17 -9 18 -13 7 -21 -11 -8 -10 -8 4 -4 11 4 29 -2
44 -14 14 -11 30 -20 35 -20 6 0 21 -9 35 -20 14 -11 30 -20 36 -20 5 0 -21
21 -59 46 -294 197 -506 475 -613 801 -61 184 -75 290 -68 512 4 135 11 210
26 274 110 474 404 848 838 1067 100 50 183 83 190 77 2 -2 -31 -19 -72 -37
-102 -44 -269 -146 -369 -224 -297 -232 -489 -538 -567 -903 -30 -142 -37
-379 -14 -514 46 -277 155 -514 334 -731 78 -94 217 -218 307 -273 69 -42 77
-43 22 -3 -33 25 -44 38 -36 46 7 7 31 -3 83 -34 105 -64 105 -54 0 15 -282
185 -490 451 -593 757 -82 242 -89 542 -20 804 119 454 436 804 925 1023 171
77 477 167 569 167 38 0 62 24 48 47 -12 19 -82 46 -188 73 -74 19 -159 29
-97 11z"/>
<path d="M2231 5522 c-5 -9 -12 -16 -15 -14 -15 6 -26 1 -26 -12 0 -25 71
-121 112 -150 l41 -30 -7 35 c-5 19 -11 63 -15 98 -6 63 -7 64 -43 77 -33 11
-39 11 -47 -4z"/>
<path d="M2110 5423 c-13 -28 -16 -35 -18 -62 -1 -8 -8 -11 -18 -7 -29 11 -3
-14 36 -34 41 -21 90 -62 90 -76 0 -4 -5 -3 -12 4 -18 18 -28 15 -28 -9 0 -16
5 -20 20 -16 11 3 20 1 20 -4 0 -13 13 -11 35 4 11 9 15 19 10 27 -6 10 -11 9
-23 -6 -13 -17 -14 -17 -9 -1 9 26 -30 136 -62 175 l-27 34 -14 -29z"/>
<path d="M1688 4866 c-3 -55 0 -64 24 -92 15 -17 48 -42 73 -55 39 -21 47 -22
55 -9 12 19 3 84 -20 135 -15 34 -25 43 -73 61 l-55 22 -4 -62z"/>
<path d="M1649 4704 c-5 -15 -28 -49 -50 -76 -24 -27 -39 -54 -35 -63 8 -21
83 -73 117 -80 24 -5 36 -2 55 15 13 13 21 27 17 33 -3 6 -1 7 5 3 9 -5 72 71
72 88 0 3 -24 17 -52 31 -29 15 -64 37 -79 51 -32 30 -37 30 -50 -2z"/>
<path d="M3815 4336 c39 -12 39 -12 15 -21 -14 -4 -41 -11 -60 -15 -35 -6 -35
-7 18 -15 28 -4 52 -9 52 -10 0 -1 -38 -40 -85 -86 -47 -45 -85 -86 -85 -90 0
-5 12 3 28 18 15 14 50 44 77 66 42 34 45 36 21 9 -17 -18 -26 -32 -22 -32 5
0 3 -7 -4 -15 -7 -8 -9 -15 -4 -15 5 0 1 -7 -9 -14 -10 -8 -15 -16 -10 -19 4
-3 63 48 131 112 l122 117 -97 12 c-119 15 -141 14 -88 -2z"/>
<path d="M1492 4287 c-30 -30 -44 -77 -23 -77 7 0 21 -44 20 -65 0 -8 85 -73
90 -68 3 1 -6 15 -20 29 l-24 26 25 -7 c20 -6 23 -5 13 6 -10 10 -7 15 14 26
14 7 33 13 42 13 9 1 29 11 44 24 l28 23 -32 31 c-34 33 -104 72 -130 72 -8 0
-29 -15 -47 -33z"/>
<path d="M1190 4033 c0 -60 21 -289 31 -331 7 -32 6 -48 -2 -58 -9 -11 -8 -14
3 -14 10 0 18 -21 27 -67 32 -176 152 -452 275 -636 162 -241 407 -474 651
-618 39 -23 76 -51 81 -63 7 -15 17 -20 38 -19 16 1 59 -12 95 -28 297 -139
695 -203 1047 -168 486 47 912 244 1299 602 254 234 453 523 531 770 10 31 23
57 29 57 6 0 11 15 11 33 0 17 10 77 21 132 12 55 23 132 25 170 3 68 2 70
-22 72 -24 3 -24 2 -3 -7 20 -8 21 -12 12 -47 -15 -55 -30 -93 -39 -93 -4 0
-11 -12 -15 -27 -11 -49 -173 -313 -215 -353 -3 -3 -21 -25 -40 -50 -18 -25
-35 -47 -37 -50 -2 -2 -7 1 -12 8 -5 8 -17 -3 -35 -33 -16 -25 -32 -45 -37
-45 -4 0 -11 -9 -14 -20 -3 -11 -15 -20 -26 -20 -11 0 -28 -14 -39 -33 -11
-17 -20 -29 -20 -25 0 3 -13 -7 -30 -24 -16 -16 -30 -33 -30 -38 0 -5 -15 -19
-32 -31 -18 -13 -36 -28 -41 -35 -4 -7 -24 -23 -45 -35 -20 -13 -42 -28 -49
-34 -6 -5 -30 -21 -52 -35 -57 -34 -51 -46 7 -14 85 47 213 146 298 229 46 45
84 79 84 75 0 -9 -95 -146 -139 -200 -20 -25 -43 -53 -51 -64 -67 -82 -76 -89
-101 -77 -23 11 -23 11 -5 -3 19 -16 19 -16 -4 -41 l-23 -25 -34 21 c-30 19
-34 19 -49 5 -8 -9 -19 -16 -23 -16 -4 0 -16 -17 -26 -37 -30 -58 -30 -59 -14
-48 8 6 6 2 -4 -8 -12 -11 -28 -15 -41 -12 -21 6 -21 6 -2 -9 11 -9 23 -16 28
-16 16 0 7 -18 -18 -34 -21 -15 -31 -15 -61 -5 -30 10 -45 8 -94 -7 -33 -11
-59 -22 -59 -25 0 -3 13 -18 30 -34 l30 -28 -37 -25 c-31 -21 -41 -23 -65 -14
-26 10 -28 9 -28 -16 0 -22 -8 -30 -41 -44 -48 -20 -55 -18 -64 21 l-6 29 -50
-49 c-27 -26 -49 -55 -49 -63 0 -9 -8 -17 -17 -18 -10 0 -29 -2 -43 -3 -14 -1
-56 -8 -94 -14 -37 -6 -77 -9 -87 -6 -15 5 -19 1 -19 -18 0 -24 -16 -37 -46
-37 -9 0 -14 11 -14 33 0 30 -5 36 -42 53 -23 10 -58 29 -77 42 l-34 23 5 -38
c5 -31 25 -87 45 -124 2 -4 -12 -9 -32 -11 -30 -3 -40 1 -58 22 -25 29 -86 74
-92 68 -3 -2 0 -20 5 -39 17 -60 14 -71 -22 -67 -30 3 -33 7 -40 45 -4 23 -14
55 -22 72 -15 28 -19 30 -68 27 -67 -4 -140 -26 -134 -40 14 -34 29 -87 24
-91 -3 -3 -19 -2 -36 1 -21 4 -32 13 -36 30 -8 29 -22 31 -38 4 -13 -21 -52
-26 -78 -10 -12 7 -11 12 5 32 11 13 31 32 44 43 l23 21 -38 33 c-53 47 -118
75 -143 62 -21 -12 -81 -84 -81 -98 0 -5 -6 -17 -13 -27 -10 -14 -18 -15 -40
-7 -15 6 -27 16 -27 22 0 6 18 38 40 71 l40 60 -37 -7 c-39 -7 -101 -35 -144
-66 -24 -17 -31 -17 -59 -5 l-32 13 23 23 c49 46 88 71 130 83 l43 13 -36 22
c-20 12 -53 41 -73 63 -22 25 -54 47 -81 56 -24 8 -46 19 -50 24 -27 44 -23
-106 5 -181 20 -55 26 -90 15 -90 -12 0 -64 34 -64 42 0 4 -9 8 -20 8 -11 0
-34 14 -52 31 -18 18 -26 27 -17 20 13 -9 18 -6 28 16 11 24 9 29 -25 64 -35
36 -89 69 -112 69 -5 0 -15 -13 -22 -30 -15 -35 -17 -36 -48 -10 -17 14 -22
25 -17 40 5 14 2 20 -10 20 -9 0 -13 -4 -10 -10 13 -21 -13 -8 -55 27 l-43 37
34 12 c19 7 28 13 20 13 -10 1 -11 10 -6 38 7 38 22 56 37 47 4 -3 5 3 2 13
-5 16 -4 16 10 -1 12 -15 16 -16 17 -5 0 8 7 1 15 -16 l14 -30 -6 35 c-3 19
-12 50 -20 68 -12 30 -16 32 -60 32 -45 0 -121 -16 -136 -30 -4 -3 1 -29 12
-58 11 -29 16 -52 10 -52 -15 0 -135 145 -201 244 -107 160 -214 401 -263 591
-16 63 -43 222 -50 290 -2 22 -2 -6 0 -61 4 -143 -5 -168 -27 -79 l-18 70 5
-60 c14 -140 66 -339 130 -488 67 -156 201 -370 295 -472 21 -22 47 -53 60
-69 43 -55 226 -208 334 -281 244 -162 472 -253 785 -312 136 -25 523 -25 665
1 204 37 431 110 579 186 33 16 62 28 64 25 8 -8 -214 -110 -313 -145 -232
-81 -421 -112 -675 -113 -215 0 -362 21 -555 77 -247 72 -428 163 -640 322
-204 152 -345 307 -508 559 -80 123 -192 408 -232 590 -10 44 -20 87 -23 95
-3 8 -4 26 -4 40 2 24 1 24 -7 4 -11 -26 -27 -38 -29 -21 -1 7 -5 32 -11 57
-5 25 -12 90 -15 144 -6 94 -16 144 -16 79z"/>
<path d="M1720 3548 c0 -67 16 -95 75 -134 23 -15 26 -15 49 13 14 15 26 35
26 44 0 29 -30 90 -48 95 -14 5 -42 17 -94 42 -5 2 -8 -25 -8 -60z"/>
<path d="M1685 3041 l-30 -7 30 -16 c17 -9 48 -34 69 -57 38 -39 39 -40 69
-25 16 9 53 18 83 21 30 3 54 9 54 12 0 14 -75 55 -123 68 -54 14 -102 15
-152 4z"/>
<path d="M2925 2957 c0 -79 14 -102 99 -155 l65 -41 -3 63 c-4 72 -37 156 -61
156 -9 0 -33 9 -55 20 -22 11 -41 20 -42 20 -2 0 -3 -28 -3 -63z"/>
<path d="M3124 2943 c15 -48 25 -126 19 -155 l-6 -31 59 5 c32 3 71 12 87 19
23 10 25 15 14 28 -7 9 -19 27 -25 41 -22 42 -35 55 -83 83 -53 31 -73 34 -65
10z"/>
<path d="M2240 2947 c0 -3 7 -13 17 -22 12 -13 13 -19 4 -24 -9 -6 -8 -19 6
-54 20 -49 63 -101 115 -139 l31 -22 -7 25 c-4 13 -10 53 -13 89 l-5 66 -45
18 c-25 10 -58 30 -74 43 -16 14 -29 22 -29 20z"/>
<path d="M2121 2828 c5 -18 9 -50 9 -72 0 -30 3 -37 16 -32 8 3 13 2 9 -3 -3
-5 1 -12 7 -15 7 -3 3 -3 -9 0 -13 3 -23 1 -23 -4 0 -6 10 -12 23 -16 12 -3
46 -21 75 -40 28 -19 52 -30 52 -24 0 5 -7 35 -16 66 -13 44 -29 68 -75 114
-66 67 -82 73 -68 26z"/>
<path d="M2464 2788 c3 -31 13 -72 23 -92 16 -35 19 -36 67 -35 28 1 40 4 28
6 -18 3 -23 10 -19 23 3 11 0 21 -7 24 -6 2 -5 5 4 5 18 1 60 60 60 84 0 9 -6
17 -12 17 -10 0 -9 3 1 9 23 15 -3 21 -79 18 l-72 -2 6 -57z"/>
<path d="M2893 2813 c-3 -10 -15 -29 -25 -42 -10 -13 -18 -29 -18 -36 0 -16
128 -70 199 -86 28 -6 51 -14 51 -19 0 -4 17 -11 37 -15 l38 -7 -28 -15 c-44
-22 -27 -25 29 -4 30 11 57 16 69 11 15 -6 27 -1 48 18 15 14 27 20 27 14 0
-7 -7 -15 -15 -18 -22 -9 -20 -45 3 -37 15 5 14 4 -2 -9 -12 -9 -16 -20 -11
-28 6 -9 4 -11 -4 -6 -7 5 -10 14 -7 22 7 19 -4 18 -34 -3 -13 -9 -48 -27 -77
-39 l-54 -21 43 -26 c24 -14 60 -43 80 -66 20 -23 43 -41 51 -41 9 0 24 -3 34
-6 17 -5 17 -5 1 9 -10 8 -15 17 -11 20 3 4 1 7 -6 7 -12 0 -12 16 -1 130 1 8
5 5 8 -8 4 -13 12 -23 17 -22 6 1 18 -16 27 -37 24 -53 22 -25 -2 37 -21 53
-29 161 -9 127 5 -9 7 -22 4 -27 -3 -6 5 -10 19 -10 16 0 27 -7 31 -20 6 -18
8 -17 32 13 15 17 42 48 60 68 l34 35 -20 45 c-12 24 -21 52 -21 61 0 13 -7
17 -22 15 -33 -5 -69 -75 -75 -147 -6 -58 -15 -75 -26 -46 -3 7 0 19 6 25 9 9
8 11 -7 5 -16 -6 -17 -3 -12 17 6 22 6 22 -5 5 -11 -18 -12 -18 -24 4 -8 15
-15 19 -19 11 -4 -6 -2 -11 5 -11 8 0 8 -4 -1 -15 -7 -8 -19 -15 -26 -15 -8 0
-14 -4 -14 -10 0 -5 -7 -10 -15 -10 -11 0 -4 16 24 52 22 29 38 55 35 59 -2 4
-18 4 -35 -1 -17 -5 -61 -10 -99 -11 -38 -1 -67 -6 -64 -11 7 -12 -5 -48 -17
-48 -5 0 -7 12 -5 26 4 20 2 24 -10 20 -12 -4 -14 -1 -9 14 5 14 2 20 -10 20
-24 0 -90 36 -130 71 -32 28 -35 29 -42 12z"/>
<path d="M3678 2679 c-26 -4 -52 -10 -58 -14 -27 -17 94 -105 144 -105 17 0
56 8 87 18 l57 17 -48 42 c-52 47 -93 56 -182 42z"/>
<path d="M3527 2599 c-15 -17 -27 -34 -27 -38 0 -3 -10 -25 -22 -48 -20 -38
-21 -44 -8 -68 15 -28 80 -77 116 -89 15 -4 24 -2 27 8 4 10 1 13 -7 10 -8 -3
-16 5 -20 21 -8 30 1 65 15 65 6 0 8 4 5 9 -3 5 2 8 12 7 10 0 16 5 14 13 -2
9 3 11 13 7 9 -3 21 -6 27 -6 6 0 5 -7 -3 -17 -11 -13 -8 -13 13 2 33 24 34
32 7 40 -11 4 -44 31 -74 61 -29 30 -55 54 -57 54 -2 0 -16 -14 -31 -31z"/>
<path d="M3778 2467 c-8 -7 -21 -21 -28 -32 -14 -18 -14 -19 2 -7 14 11 17 10
23 -9 9 -26 -10 -63 -39 -77 -38 -19 33 -13 81 6 35 14 47 27 71 74 l29 57
-63 0 c-34 -1 -69 -6 -76 -12z"/>
<path d="M2910 2462 c-52 -6 -55 -12 -19 -33 19 -12 50 -36 69 -54 l35 -34 55
19 c30 11 67 19 83 20 43 0 32 16 -35 49 -60 28 -131 41 -188 33z"/>
<path d="M2505 800 c86 -17 95 -20 95 -31 0 -6 -4 -7 -10 -4 -5 3 -10 0 -10
-8 0 -9 -10 -13 -32 -11 -18 2 -9 -2 20 -9 l54 -12 -39 -32 c-31 -27 -35 -34
-23 -42 12 -8 12 -13 2 -23 -6 -6 -12 -20 -12 -30 0 -10 -4 -18 -9 -18 -5 0
-12 -8 -15 -17 -9 -21 12 -4 140 119 86 83 89 87 65 93 -29 6 -148 21 -226 29
l-50 5 50 -9z"/>
</g>
</svg>
