<?xml version="1.0" standalone="no"?>
<!DOCTYPE svg PUBLIC "-//W3C//DTD SVG 20010904//EN"
 "http://www.w3.org/TR/2001/REC-SVG-20010904/DTD/svg10.dtd">
<svg version="1.0" xmlns="http://www.w3.org/2000/svg"
 width="1200.000000pt" height="1200.000000pt" viewBox="0 0 1200.000000 1200.000000"
 preserveAspectRatio="xMidYMid meet">
<metadata>
Created by potrace 1.16, written by Peter Selinger 2001-2019
</metadata>
<g transform="translate(0.000000,1200.000000) scale(0.100000,-0.100000)"
fill="#000000" stroke="none">
<path d="M8010 8731 c0 -746 0 -1996 0 -2778 l0 -1423 -61 -122 c-34 -68 -65
-126 -70 -129 -5 -3 -78 -16 -162 -28 -83 -13 -154 -25 -157 -28 -3 -2 48 -55
113 -116 l119 -112 -28 -158 c-15 -86 -24 -160 -21 -163 3 -3 69 28 147 70
l142 76 72 -39 c218 -119 227 -122 221 -98 -2 12 -16 86 -29 165 l-25 142 120
118 121 117 -31 6 c-16 3 -91 14 -165 24 l-135 19 -58 115 -58 116 -5 2789 -5
2789 -22 2 -23 2 0 -1356z m65 -4461 c27 -55 46 -82 60 -85 11 -2 53 -9 94
-16 l73 -11 -67 -68 -67 -68 12 -73 c6 -41 14 -83 17 -93 4 -16 -11 -10 -80
27 l-86 47 -76 -41 c-42 -23 -79 -39 -82 -36 -3 3 1 45 8 93 l13 88 -68 62
-68 62 29 6 c15 3 54 8 86 12 32 3 65 13 73 21 8 8 29 46 47 84 17 38 34 69
37 69 4 0 24 -36 45 -80z"/>
<path d="M3940 7301 l0 -2779 -60 -124 -61 -124 -135 -19 c-74 -10 -149 -21
-165 -24 l-31 -6 120 -117 121 -117 -28 -161 c-16 -88 -25 -160 -22 -160 4 0
71 34 149 75 l141 75 141 -76 c78 -42 144 -74 147 -71 3 3 -7 77 -22 164 l-27
158 123 116 123 116 -75 11 c-41 6 -116 17 -167 23 l-94 13 -64 129 -65 128 1
782 c0 430 1 1679 0 2775 l0 1992 -25 0 -25 0 0 -2779z m73 -3031 c27 -58 43
-81 60 -84 12 -3 55 -10 95 -17 l74 -11 -68 -62 -68 -62 13 -88 c7 -48 11 -89
8 -92 -3 -3 -40 12 -83 34 l-77 40 -85 -45 c-69 -38 -83 -43 -79 -27 3 10 11
52 17 93 l12 73 -67 68 -67 68 73 11 c41 7 83 14 94 16 14 3 33 30 60 85 21
44 41 80 45 80 3 0 22 -36 43 -80z"/>
<path d="M4947 9953 c-4 -3 -7 -692 -7 -1530 l0 -1523 -35 -70 c-39 -77 -30
-72 -168 -91 l-88 -12 79 -81 80 -81 -19 -104 c-10 -58 -18 -105 -16 -106 1
-1 45 21 97 50 l95 52 93 -50 c51 -27 95 -47 98 -45 2 3 -3 51 -12 107 l-17
102 77 78 78 78 -84 12 c-141 20 -129 13 -176 106 l-42 85 0 1515 c0 1548 0
1542 -33 1508z m53 -3202 c20 -44 28 -51 59 -56 92 -15 89 -11 41 -60 l-43
-44 10 -60 9 -59 -55 28 -56 28 -49 -25 c-26 -13 -50 -22 -53 -20 -2 3 0 29 6
58 l10 54 -43 42 -44 42 27 5 c14 3 42 8 62 11 32 6 38 12 58 61 13 30 26 52
30 50 4 -3 18 -27 31 -55z"/>
<path d="M6900 8431 l0 -1528 -34 -70 c-39 -79 -29 -74 -174 -94 l-84 -12 79
-81 80 -81 -13 -75 c-7 -41 -16 -89 -19 -106 l-5 -31 92 48 c51 27 98 49 103
49 6 0 52 -22 103 -49 51 -27 92 -46 92 -42 0 3 -7 52 -17 109 l-17 102 78 79
78 79 -88 11 c-49 7 -98 14 -109 16 -14 3 -34 32 -63 90 l-42 85 0 1509 c0
1500 0 1509 -20 1514 -20 5 -20 0 -20 -1522z m119 -1736 c92 -15 89 -11 42
-59 -43 -43 -43 -44 -36 -100 4 -31 3 -56 -1 -56 -5 0 -28 11 -52 25 l-43 25
-49 -25 c-27 -14 -52 -25 -55 -25 -3 0 -3 28 1 63 l6 62 -42 34 c-48 39 -46
42 40 55 43 6 46 9 69 62 l24 55 30 -55 c26 -48 34 -56 66 -61z"/>
<path d="M2980 8425 l0 -1525 -35 -69 c-19 -38 -42 -72 -52 -75 -10 -2 -60
-10 -112 -17 l-93 -12 80 -78 81 -79 -14 -82 c-8 -46 -17 -95 -21 -111 l-6
-27 101 52 100 53 91 -48 c50 -27 94 -46 97 -43 3 3 -2 52 -12 108 l-18 103
79 72 c43 40 76 74 73 77 -2 2 -51 11 -108 19 -56 9 -104 17 -106 19 -1 2 -21
40 -44 85 l-41 83 0 1510 c0 1503 0 1510 -20 1510 -20 0 -20 -7 -20 -1525z
m60 -1675 c20 -43 28 -50 59 -55 92 -15 89 -11 41 -60 -40 -41 -42 -45 -35
-86 3 -24 9 -53 12 -63 5 -17 -2 -15 -51 13 l-56 31 -51 -26 c-28 -14 -53 -24
-55 -21 -2 2 0 28 6 57 l10 54 -41 42 c-45 46 -46 46 37 59 37 6 43 11 64 56
13 27 26 49 30 49 4 0 17 -22 30 -50z"/>
<path d="M8860 8429 l0 -1521 -37 -74 c-41 -81 -30 -75 -171 -95 l-84 -12 79
-81 80 -81 -19 -99 c-10 -54 -17 -101 -14 -104 5 -4 72 28 158 77 27 15 31 14
128 -35 113 -57 107 -63 81 71 l-18 90 80 81 79 81 -84 12 c-141 20 -129 13
-176 106 l-42 85 0 1510 c0 1503 0 1510 -20 1510 -20 0 -20 -7 -20 -1521z
m117 -1734 c94 -15 91 -11 43 -60 -42 -43 -43 -43 -36 -99 4 -31 4 -56 -1 -56
-4 1 -28 11 -53 24 l-45 24 -47 -24 c-26 -13 -50 -24 -53 -24 -4 0 -3 25 1 56
7 56 6 56 -36 99 l-43 43 62 13 c62 12 63 12 89 66 l26 54 28 -55 c25 -49 32
-56 65 -61z"/>
<path d="M2000 8343 c0 -714 0 -1704 0 -2200 l0 -902 -37 -10 c-137 -37 -203
-189 -138 -317 14 -27 25 -50 25 -51 0 -2 -54 -3 -120 -3 -110 0 -125 -2 -172
-26 -92 -47 -137 -118 -138 -216 0 -32 -4 -58 -9 -58 -18 0 -105 -86 -119
-120 -8 -19 -18 -84 -22 -145 -6 -92 -14 -129 -48 -225 -23 -63 -54 -173 -69
-245 -25 -120 -27 -148 -28 -360 0 -191 3 -243 19 -310 23 -96 69 -233 102
-297 19 -38 24 -63 24 -125 0 -127 31 -201 107 -254 32 -23 37 -32 39 -73 8
-142 109 -246 240 -246 52 0 53 -1 65 -37 27 -84 100 -158 186 -189 21 -7 70
-13 109 -14 60 0 81 5 133 31 70 35 133 105 152 169 12 38 12 39 63 39 130 0
230 97 243 235 5 59 9 69 32 81 75 39 110 117 111 243 0 83 3 99 30 153 85
168 124 353 123 594 0 231 -44 472 -122 668 -27 67 -31 91 -31 170 -1 123 -31
188 -112 241 -21 14 -26 27 -31 76 -9 104 -61 180 -152 221 -31 15 -65 19
-156 19 l-116 0 29 56 c46 92 34 176 -34 250 -28 30 -55 48 -87 58 l-46 13 -3
2202 c-2 2193 -2 2201 -22 2201 -20 0 -20 -7 -20 -1297z m62 -3173 c49 -14
104 -76 113 -129 15 -88 -63 -181 -152 -181 -178 0 -224 246 -58 305 49 17 51
17 97 5z m613 -1051 c20 -31 79 -229 100 -335 61 -297 40 -564 -62 -806 l-37
-88 -664 0 -663 0 -29 63 c-74 163 -103 307 -103 507 -1 211 35 412 104 590
l30 80 659 0 c450 0 661 -3 665 -11z"/>
<path d="M5990 8898 c0 -409 0 -1398 0 -2199 l0 -1457 -46 -11 c-57 -15 -137
-90 -147 -140 -14 -68 -8 -127 18 -175 14 -26 25 -49 25 -52 0 -3 -55 -4 -123
-3 -114 1 -126 0 -173 -24 -87 -44 -129 -109 -140 -216 -6 -54 -10 -61 -42
-83 -20 -13 -50 -45 -67 -72 -27 -45 -30 -59 -36 -165 -5 -87 -12 -130 -29
-171 -76 -185 -123 -437 -123 -660 0 -233 37 -412 119 -587 30 -63 34 -81 34
-153 0 -46 5 -100 12 -122 13 -43 78 -123 107 -133 14 -4 20 -20 25 -72 15
-146 115 -243 250 -243 42 0 43 -1 65 -55 31 -74 109 -145 186 -170 152 -47
325 34 380 178 18 46 18 47 64 47 135 2 231 97 247 248 4 34 11 62 16 62 4 0
28 18 52 41 57 51 76 107 76 215 0 72 4 91 34 156 19 42 46 111 59 154 96 303
79 686 -47 1050 -39 113 -45 142 -48 230 -3 92 -6 106 -34 150 -16 27 -46 59
-66 72 -32 22 -36 29 -42 85 -6 60 -32 124 -64 161 -10 10 -39 31 -67 47 -48
27 -56 29 -172 29 -68 0 -123 2 -123 5 0 2 11 20 24 40 82 120 9 295 -136 330
l-28 7 0 2199 c0 2192 0 2199 -20 2199 -20 0 -20 -7 -20 -742z m73 -3727 c38
-15 86 -69 97 -112 41 -152 -149 -262 -261 -150 -119 118 8 321 164 262z m628
-1121 c68 -177 103 -370 103 -575 0 -214 -27 -349 -105 -522 l-28 -63 -661 0
-661 0 -35 76 c-144 316 -135 724 25 1137 l11 27 661 -2 662 -3 28 -75z"/>
<path d="M9970 7442 l0 -2199 -41 -12 c-49 -15 -111 -69 -134 -118 -27 -56
-23 -142 9 -199 14 -26 26 -48 26 -50 0 -2 -57 -4 -127 -4 -108 0 -133 -3
-170 -21 -82 -39 -142 -139 -144 -238 0 -30 -7 -41 -42 -66 -26 -19 -52 -50
-69 -84 -25 -48 -28 -66 -28 -146 0 -75 -5 -103 -26 -155 -79 -194 -128 -455
-128 -685 0 -227 34 -398 114 -572 36 -78 40 -93 40 -168 0 -122 29 -189 104
-243 30 -21 34 -30 39 -82 12 -139 116 -238 249 -240 43 0 47 -2 53 -29 8 -39
62 -113 109 -150 84 -67 222 -79 322 -28 62 31 127 102 150 163 16 42 19 44
57 44 64 0 116 21 167 67 55 50 82 107 82 176 -1 26 5 52 11 57 114 91 128
118 137 265 6 92 11 119 33 163 74 145 107 298 114 527 8 256 -25 458 -112
703 -28 78 -35 112 -35 173 0 125 -37 207 -118 259 -18 12 -24 26 -27 68 -5
69 -44 153 -86 184 -70 53 -91 58 -219 58 -66 0 -120 3 -120 6 0 3 9 18 19 33
42 59 49 156 15 222 -20 40 -89 97 -133 110 l-41 12 0 2199 0 2198 -25 0 -25
0 0 -2198z m87 -2277 c66 -27 110 -114 91 -182 -21 -78 -101 -131 -179 -118
-127 22 -173 182 -77 272 46 44 102 53 165 28z m628 -1130 c70 -193 113 -473
100 -645 -12 -167 -57 -347 -116 -462 l-19 -38 -663 0 -662 0 -19 43 c-120
272 -145 541 -80 867 17 88 70 263 90 303 l15 27 661 -2 661 -3 32 -90z"/>
</g>
</svg>
